# xmcd CD database file
#
# Track frame offsets:
#	150
#	13060
#	24687
#
# Disc length: 474 seconds
#
# Revision: 0
# Processed by: cddbd v1.5.1PL0 Copyright (c) Steve Scherf et al.
# Submitted via: CDex 1.51
#
DISCID=1c01d803
DTITLE=POLYSICS - シーラカンス イズ アンドロイド
DYEAR=2005
DGENRE=Rock
TTITLE0=シーラカンス イズ アンドロイド
TTITLE1=Psycho Therapy
TTITLE2=メソー
EXTD=YEAR: 2005
EXTT0=
EXTT1=
EXTT2=
PLAYORDER=
